<?xml version="1.0" encoding="UTF-8"?>
<!DOCTYPE svg PUBLIC "-//W3C//DTD SVG 1.1//EN" "http://www.w3.org/Graphics/SVG/1.1/DTD/svg11.dtd">
<!-- Creator: CorelDRAW X7 -->
<svg xmlns="http://www.w3.org/2000/svg" xml:space="preserve" width="29.2382mm" height="19.4255mm" version="1.1" style="shape-rendering:geometricPrecision; text-rendering:geometricPrecision; image-rendering:optimizeQuality; fill-rule:evenodd; clip-rule:evenodd"
viewBox="0 0 551959 366714"
 xmlns:xlink="http://www.w3.org/1999/xlink">
 <defs>
  <style type="text/css">
   <![CDATA[
    .fil1 {fill:black;fill-rule:nonzero}
    .fil2 {fill:url(#id0);fill-rule:nonzero}
    .fil0 {fill:url(#id1);fill-rule:nonzero}
   ]]>
  </style>
  <radialGradient id="id0" gradientUnits="userSpaceOnUse" gradientTransform="matrix(0.974901 0.0363736 0.0115269 0.961705 7042 -6250)" cx="364689" cy="183188" r="343268" fx="364689" fy="183188">
   <stop offset="0" style="stop-opacity:1; stop-color:white"/>
   <stop offset="0.901961" style="stop-opacity:1; stop-color:#F2F2F2"/>
   <stop offset="1" style="stop-opacity:1; stop-color:#E5E5E5"/>
  </radialGradient>
  <radialGradient id="id1" gradientUnits="userSpaceOnUse" gradientTransform="matrix(-0.856078 -0.000464895 0.0193596 -0.932585 313895 368609)" cx="171106" cy="190692" r="341099" fx="171106" fy="190692">
   <stop offset="0" style="stop-opacity:1; stop-color:#4CD964"/>
   <stop offset="0.878431" style="stop-opacity:1; stop-color:#44CD5B"/>
   <stop offset="1" style="stop-opacity:1; stop-color:#3CC252"/>
  </radialGradient>
 </defs>
 <g id="Слой_x0020_1">
  <metadata id="CorelCorpID_0Corel-Layer"/>
  <g id="_200671159936">
   <path class="fil0" d="M183358 0l185244 0c50437,0 96280,20624 129505,53851 33227,33226 53852,79069 53852,129507 0,50437 -20625,96280 -53852,129505 -33225,33227 -79068,53851 -129505,53851l-185244 0c-50438,0 -96281,-20624 -129505,-53851 -33227,-33225 -53853,-79068 -53853,-129505 0,-50438 20626,-96281 53853,-129507 33224,-33227 79067,-53851 129505,-53851z"/>
   <path class="fil1" d="M183358 0l185244 0c50437,0 96280,20624 129505,53851 33227,33226 53852,79069 53852,129507 0,50437 -20625,96280 -53852,129505 -33225,33227 -79068,53851 -129505,53851l-185244 0c-50438,0 -96281,-20624 -129507,-53851 -33225,-33225 -53851,-79068 -53851,-129505 0,-50438 20626,-96281 53851,-129507 33226,-33227 79069,-53851 129507,-53851zm185244 25772l-185244 0c-43323,0 -82719,17734 -111286,46300 -28566,28567 -46300,67963 -46300,111286 0,43321 17734,82718 46300,111284 28567,28566 67963,46300 111286,46300l185244 0c43323,0 82720,-17734 111284,-46300 28568,-28566 46302,-67963 46302,-111284 0,-43323 -17734,-82719 -46302,-111286 -28564,-28566 -67961,-46300 -111284,-46300z"/>
   <path class="fil2" d="M194853 239245l-30218 -4346c-10996,-1582 -20507,5103 -28123,-2075 -7617,-7177 -11425,-7494 -11425,-18334 0,-10838 3818,-6749 11425,-13768 7606,-7021 17004,-11093 28123,-10547l132484 6519c9947,487 34494,-23217 34494,-30539 0,-7618 -24587,-29390 -34494,-28806l-110589 6518c-8746,516 15061,6615 15061,-1880 0,-9082 -24142,-13622 -15939,-13622l12848 0c8996,-28417 31275,-53897 51894,-74514 33227,-33227 53000,-38643 103434,-38643l14774 0c50437,0 85418,14108 118643,47333 33227,33225 58197,70379 58197,120817 0,50437 -20624,89763 -53851,122987 -33226,33227 -72552,51680 -122989,51680l-14774 0c-50434,0 -87588,-11935 -120813,-45162 -17189,-17186 -28831,-50789 -38162,-73618z"/>
   <path class="fil1" d="M353828 0l14774 0c50437,0 96280,20624 129505,53851 33227,33226 53852,79069 53852,129507 0,50437 -20625,96280 -53852,129505 -33225,33227 -79068,53851 -129505,53851l-14774 0c-50434,0 -96277,-20624 -129505,-53851 -17188,-17186 -31001,-37754 -40332,-60583l-38910 0c-11132,0 -20505,-3589 -28122,-10766 -7618,-7176 -11425,-16184 -11425,-27024 0,-10838 3807,-19773 11425,-26803 7617,-7032 16990,-10547 28122,-10547l152038 0c9960,0 14940,-3663 14940,-10985 0,-7618 -4990,-11425 -14940,-11425l-130143 0c-8777,0 -13183,-4248 -13183,-12743 0,-9082 4103,-13622 12305,-13622l12848 0c8998,-28417 24759,-53897 45377,-74514 33228,-33227 79071,-53851 129505,-53851zm-141598 252280c7731,15761 18017,30065 30314,42362 28567,28566 67963,46300 111284,46300l14774 0c43323,0 82718,-17734 111286,-46300 28566,-28566 46298,-67961 46298,-111284 0,-43323 -17732,-82719 -46298,-111286 -28568,-28566 -67963,-46300 -111286,-46300l-14774 0c-43321,0 -82717,17734 -111284,46300 -15831,15830 -28332,34987 -36334,56293l94864 0c11132,0 20579,3588 28343,10766 7763,7175 11644,16184 11644,27024 0,10839 -3881,19772 -11644,26803 -7764,7032 -17211,10547 -28343,10547l-152038 0c-9960,0 -14940,3807 -14940,11425 0,7323 4980,10985 14940,10985l175767 0c9081,0 13621,4395 13621,13182 0,8790 -4248,13183 -12743,13183l-113451 0z"/>
  </g>
 </g>
</svg>
